<svg xmlns="http://www.w3.org/2000/svg" viewBox="0 0 64 64">
  <rect width="64" height="64" rx="10" fill="#2563eb"/>
  <path d="M12 18H52M12 32H52M12 46H52M18 12V52M32 12V52M46 12V52" stroke="#ffffff" stroke-opacity=".2"/>
  <path d="M15 43L45 17" stroke="#ffffff" stroke-opacity=".55" stroke-width="2" stroke-linecap="round"/>
  <path d="M18 21L50 34" stroke="#ffffff" stroke-opacity=".45" stroke-width="2" stroke-linecap="round"/>
  <rect x="14" y="16" width="26" height="26" transform="rotate(-12 27 29)" fill="none" stroke="#ffffff" stroke-opacity=".55" stroke-width="2"/>
  <rect x="25" y="22" width="25" height="25" transform="rotate(14 37.5 34.5)" fill="none" stroke="#ffffff" stroke-opacity=".4" stroke-width="2"/>
  <circle cx="34" cy="32" r="18" fill="none" stroke="#ffffff" stroke-opacity=".35" stroke-width="2"/>
  <circle cx="48" cy="20" r="3" fill="#ffffff" fill-opacity=".75"/>
  <path data-brand-letter="s" d="M27 23H19C16.8 23 15 24.8 15 27S16.8 31 19 31H23C25.2 31 27 32.8 27 35S25.2 39 23 39H15" fill="none" stroke="#ffffff" stroke-width="2" stroke-linecap="round" stroke-linejoin="round"/>
  <path data-brand-letter="b" d="M34 23V41M34 23H42C44.2 23 46 24.8 46 27S44.2 31 42 31H34M34 31H43C45.2 31 47 32.8 47 36S45.2 41 43 41H34" fill="none" stroke="#ffffff" stroke-width="2" stroke-linecap="round" stroke-linejoin="round"/>
</svg>
